<svg id="Layer_3" data-name="Layer 3" xmlns="http://www.w3.org/2000/svg" viewBox="0 0 503.89 388.51"><defs><style>.cls-1{fill:#f60;}.cls-2{fill:#fff;}</style></defs><title>logo2</title><path class="cls-1" d="M7407,7038.62h-24.9v-22.25a44.5,44.5,0,0,0-44.5-44.5H7061.44a44.5,44.5,0,0,0-44.5,44.5v22.25h-24.89a44.5,44.5,0,0,0-44.5,44.5v232.76a44.5,44.5,0,0,0,44.5,44.5H7407a44.5,44.5,0,0,0,44.5-44.5V7083.12A44.5,44.5,0,0,0,7407,7038.62Zm-169.21,0h-76.48a13.57,13.57,0,0,1,0-27.14h17.37a22.25,22.25,0,0,1,43.41,0h15.7a13.57,13.57,0,1,1,0,27.14Z" transform="translate(-6947.55 -6971.87)"/><path class="cls-2" d="M7022.86,7175.36v25.4q0,6.9-4.2,11.11t-11.11,4.2q-7.1,0-11.3-4.2t-4.2-11.11V7098.24q0-6.9,4.11-11t11.2-4.11a15.55,15.55,0,0,1,11.21,4.11q4.29,4.11,4.29,11v40.52l48.55-50.41q4.86-5.22,10.64-5.23a12.3,12.3,0,0,1,5.33,1.21,15.61,15.61,0,0,1,4.48,3.27,17.43,17.43,0,0,1,3.17,4.67,12.31,12.31,0,0,1,1.21,5.23,12.68,12.68,0,0,1-.84,4.48,10.64,10.64,0,0,1-2.89,4.11l-34.36,34.35,37.16,52.66a16.24,16.24,0,0,1,3.18,9.15,12,12,0,0,1-1.31,5.41,15.56,15.56,0,0,1-3.46,4.58,16.52,16.52,0,0,1-4.85,3.08,14.25,14.25,0,0,1-5.51,1.12q-6.54,0-11-6.16l-35.1-49.48Z" transform="translate(-6947.55 -6971.87)"/><path class="cls-2" d="M7144,7162.85v37.91q0,6.9-4.2,11.11t-11.11,4.2q-7.09,0-11.3-4.2t-4.2-11.11V7098.24q0-6.9,4.11-11t11.21-4.11a15.54,15.54,0,0,1,11.2,4.11q4.29,4.11,4.29,11v37.91h54.9v-37.91q0-6.9,4.11-11c2.73-2.74,6.41-4.11,11-4.11s8.5,1.37,11.3,4.11,4.2,6.41,4.2,11v102.52q0,6.9-4.11,11.11t-11,4.2q-7.11,0-11.3-4.2t-4.2-11.11v-37.91Z" transform="translate(-6947.55 -6971.87)"/><path class="cls-2" d="M7278.86,7187.69l-5.61,17a16,16,0,0,1-5.5,8.21,14.74,14.74,0,0,1-9.43,3.18q-7.47,0-11.49-3.55a12,12,0,0,1-4-9.52,22.3,22.3,0,0,1,1.12-6.73l32.49-94.66a28.26,28.26,0,0,1,9-13.45q6.26-5,16.53-5,10.08,0,16.52,5a27.71,27.71,0,0,1,9.25,13.45l32.49,94.66c.37,1.25.68,2.43.93,3.55a15.37,15.37,0,0,1,.37,3.36,11.68,11.68,0,0,1-4.1,9.43q-4.11,3.47-11.39,3.46a15,15,0,0,1-14.94-11.39l-5.6-17Zm6-22h34.36L7302,7110.94Z" transform="translate(-6947.55 -6971.87)"/><path class="cls-2" d="M7391.64,7216.07q-6.92,0-11.11-4.2t-4.21-11.11V7098.24q0-6.9,4.11-11t11-4.11q7.1,0,11.3,4.11t4.2,11v102.52q0,6.9-4.11,11.11T7391.64,7216.07Z" transform="translate(-6947.55 -6971.87)"/><path class="cls-2" d="M7011.77,7289.59v16.25a9.24,9.24,0,0,1-9.8,9.8,9.77,9.77,0,0,1-7.23-2.69,9.61,9.61,0,0,1-2.69-7.11v-65.6a9.53,9.53,0,0,1,2.63-7.05,9.69,9.69,0,0,1,7.17-2.63,10,10,0,0,1,7.17,2.63,9.3,9.3,0,0,1,2.75,7.05v25.93l31.07-32.27a9.18,9.18,0,0,1,6.81-3.34,7.87,7.87,0,0,1,3.41.77,9.79,9.79,0,0,1,2.86,2.1,11,11,0,0,1,2,3,8,8,0,0,1,.77,3.35,8.31,8.31,0,0,1-.53,2.87,6.85,6.85,0,0,1-1.86,2.63l-22,22,23.78,33.7a10.46,10.46,0,0,1,2,5.86,7.61,7.61,0,0,1-.84,3.46,10.1,10.1,0,0,1-2.21,2.93,10.53,10.53,0,0,1-3.11,2,9.09,9.09,0,0,1-3.52.72,8.47,8.47,0,0,1-7.05-3.94L7021,7280.27Z" transform="translate(-6947.55 -6971.87)"/><path class="cls-2" d="M7089.32,7281.58v24.26a9.24,9.24,0,0,1-9.8,9.8,9.8,9.8,0,0,1-7.23-2.69,9.61,9.61,0,0,1-2.68-7.11v-65.6a9.52,9.52,0,0,1,2.62-7.05,9.72,9.72,0,0,1,7.17-2.63,10,10,0,0,1,7.17,2.63,9.26,9.26,0,0,1,2.75,7.05v24.26h35.14v-24.26a9,9,0,0,1,9.67-9.68,9.9,9.9,0,0,1,7.23,2.63,9.37,9.37,0,0,1,2.69,7.05v65.6a9.7,9.7,0,0,1-2.63,7.11,9.41,9.41,0,0,1-7.05,2.69,9.8,9.8,0,0,1-7.23-2.69,9.61,9.61,0,0,1-2.68-7.11v-24.26Z" transform="translate(-6947.55 -6971.87)"/><path class="cls-2" d="M7194.36,7315.88a48.57,48.57,0,0,1-17-2.87,36.08,36.08,0,0,1-13.14-8.3,37,37,0,0,1-8.43-13.45,52.07,52.07,0,0,1-3-18.28,51.2,51.2,0,0,1,3-18.1,37,37,0,0,1,8.43-13.39,36.08,36.08,0,0,1,13.14-8.3,48.57,48.57,0,0,1,17-2.87,48.07,48.07,0,0,1,17,2.87,36.17,36.17,0,0,1,13.08,8.3,37,37,0,0,1,8.43,13.39,51.19,51.19,0,0,1,3,18.1,52.06,52.06,0,0,1-3,18.28,37,37,0,0,1-8.43,13.45,36.17,36.17,0,0,1-13.08,8.3A48.07,48.07,0,0,1,7194.36,7315.88Zm0-17.69a18.88,18.88,0,0,0,8.13-1.73,18.3,18.3,0,0,0,6.39-5,23.38,23.38,0,0,0,4.18-7.88,38.49,38.49,0,0,0,0-21.28,23.38,23.38,0,0,0-4.18-7.88,17.67,17.67,0,0,0-6.39-4.9,19.45,19.45,0,0,0-8.13-1.67,18.23,18.23,0,0,0-14.58,6.63q-5.61,6.63-5.61,18.46a34.75,34.75,0,0,0,1.49,10.64,23.84,23.84,0,0,0,4.12,7.88,17.64,17.64,0,0,0,6.4,5A19.23,19.23,0,0,0,7194.36,7298.19Z" transform="translate(-6947.55 -6971.87)"/><path class="cls-2" d="M7263.91,7263.3v42.78a9.26,9.26,0,0,1-2.69,6.93,10.6,10.6,0,0,1-14,0,9.26,9.26,0,0,1-2.69-6.93v-64.29a11,11,0,0,1,3.11-8.12,11.11,11.11,0,0,1,8.24-3.11,11.5,11.5,0,0,1,5.38,1.31,12.62,12.62,0,0,1,4.18,3.47l34.06,47.32v-42.54a9,9,0,0,1,9.56-9.56,9.58,9.58,0,0,1,7,2.63,9.26,9.26,0,0,1,2.69,6.93v64.17a11.15,11.15,0,0,1-3.11,8.24,11,11,0,0,1-8.13,3.11,11.17,11.17,0,0,1-5.31-1.37,11.9,11.9,0,0,1-4.13-3.53Z" transform="translate(-6947.55 -6971.87)"/><path class="cls-2" d="M7368.71,7315.88a46.56,46.56,0,0,1-16.79-2.87,34.48,34.48,0,0,1-12.73-8.36,37,37,0,0,1-8.06-13.51,54.84,54.84,0,0,1-2.81-18.28,53.39,53.39,0,0,1,2.81-18,36.53,36.53,0,0,1,8.06-13.33,34.85,34.85,0,0,1,12.73-8.3,46.56,46.56,0,0,1,16.79-2.87q26,0,36.44,18.28a8.34,8.34,0,0,1,1.2,4.3,7.44,7.44,0,0,1-.9,3.59,9.88,9.88,0,0,1-2.39,2.93,11.92,11.92,0,0,1-3.34,2,10,10,0,0,1-3.65.72,8.33,8.33,0,0,1-4.78-1.56,34.63,34.63,0,0,1-4.78-4.06,28.47,28.47,0,0,0-7.47-6.21,19.66,19.66,0,0,0-10.33-2.75q-9.33,0-14.64,6.27t-5.32,19.06q0,13,5.32,19.42t14.64,6.39a25.62,25.62,0,0,0,7.11-.95,17.62,17.62,0,0,0,5.73-2.81,13.29,13.29,0,0,0,3.89-4.72,14.56,14.56,0,0,0,1.43-6.57v-.84h-11.59a6.79,6.79,0,0,1-7.29-7.29,7.38,7.38,0,0,1,2-5.44,7.22,7.22,0,0,1,5.32-2h19.84q6,0,8.9,3.59a14.07,14.07,0,0,1,2.93,9.2v.83a39.59,39.59,0,0,1-1.92,11.95,29.44,29.44,0,0,1-6.39,11.06,33,33,0,0,1-11.83,8.06Q7379.46,7315.89,7368.71,7315.88Z" transform="translate(-6947.55 -6971.87)"/></svg>