<svg id="Layer_1" data-name="Layer 1" xmlns="http://www.w3.org/2000/svg" viewBox="0 0 736.07 350.08"><title>logoMono</title><g id="Logo"><path d="M7567.18,7200.21a82.7,82.7,0,0,0-6.6-26.05l-1.82-4.2-2.44-3.87a83,83,0,0,0-32.75-30.15,84,84,0,0,0-37.76-9.34l-36.45-1.15a16.12,16.12,0,0,1-15.62-16.11v-35.09a49.68,49.68,0,0,0-22.92-41.9c-.41-.28-.83-.54-1.25-.79-.62-.38-1.25-.74-1.89-1.09s-1.43-.75-2.15-1.1-1.46-.68-2.2-1h0a49.51,49.51,0,0,0-15.55-3.77l-1.27-.08-1.27,0-1.29,0H7015.06l-1.29,0-1.27,0-1.27.08a49.51,49.51,0,0,0-15.55,3.77h0c-.74.32-1.48.65-2.2,1s-1.44.72-2.15,1.1-1.27.72-1.89,1.09a49.74,49.74,0,0,0-24.17,42.69v19.39a16.13,16.13,0,0,1-16.63,16.12c-1.33-.05-2.66-.07-4-.07a101.51,101.51,0,0,0-45.12,10.46,120.21,120.21,0,0,0-33.86,24.74,125.86,125.86,0,0,0-23,33.43,116.11,116.11,0,0,0-11,41.74l0,.59a111,111,0,0,0,1.24,24.39,89.16,89.16,0,0,0,11.42,31.57,89.8,89.8,0,0,0,57.63,41.76l0,0a94.72,94.72,0,0,0,9,17.58,84.53,84.53,0,0,0,72.22,38.57h.64l5.34-.2,483.16-18.1a88.32,88.32,0,0,0,48.64-15.05,89.71,89.71,0,0,0,35.8-48.15,131.15,131.15,0,0,0,5-22c.89-6,1.71-12.42,2.45-19.14.68-6.17,1.31-12.53,1.86-18.86.53-6,.89-11.11,1.1-15.62A105,105,0,0,0,7567.18,7200.21Zm-422.75-130.28a13.39,13.39,0,0,1,9.49-3.93h27.77a19.33,19.33,0,0,1,35.62,0h27.39a13.68,13.68,0,0,1,13.78,12.77,13.41,13.41,0,0,1-13.4,14.07h-90.8a13.64,13.64,0,0,1-13.74-12.43A13.39,13.39,0,0,1,7144.43,7069.93Zm387.81,145.21c-.17,4.06-.5,8.91-1,14.79-.53,6-1.13,12.13-1.79,18.11s-1.43,12.11-2.28,17.83a96.48,96.48,0,0,1-3.65,16.39,55.05,55.05,0,0,1-22,29.86,53.14,53.14,0,0,1-29.88,9.12l-483.73,18.12-4.67.17a49.57,49.57,0,0,1-42.93-22.73,61.86,61.86,0,0,1-8.59-20.68,106.12,106.12,0,0,1-1.81-10.89q-2.54.32-5.16.42a53.67,53.67,0,0,1-15.48-1.52,55,55,0,0,1-21.17-10,55.84,55.84,0,0,1-13.67-15.41,54.45,54.45,0,0,1-7-19.28,76.55,76.55,0,0,1-.85-16.81v-.18a81.15,81.15,0,0,1,7.71-29.19,91,91,0,0,1,16.6-24.16,85.19,85.19,0,0,1,24-17.54,67.19,67.19,0,0,1,32.48-6.84l312.39,9.79,20.9.66,204.48,6.41a49.25,49.25,0,0,1,22.5,5.54,48.24,48.24,0,0,1,19,17.62l1,1.6.75,1.73a48,48,0,0,1,3.84,15.12A69.16,69.16,0,0,1,7532.24,7215.14Z" transform="translate(-6831.46 -7024.46)"/><path d="M6891.55,7224.17a56.07,56.07,0,0,1,5.37-20.21,65.78,65.78,0,0,1,12-17.53,60,60,0,0,1,17-12.41,42.23,42.23,0,0,1,20.53-4.3,41.39,41.39,0,0,1,25.42,9.77,42.5,42.5,0,0,1,14.5,23.91,57.42,57.42,0,0,1,1.82,17.83,92.37,92.37,0,0,1-2.91,18.57c-.81,3.21-1.81,7.53-3,13s-2.09,10.85-2.72,16.19a55.81,55.81,0,0,0-.16,13.85q.78,5.84,4.7,5.69a8.19,8.19,0,0,0,6.43-3.47,16.65,16.65,0,0,0,3.24-6.7c.49-1.7,1.12-4.56,1.9-8.6s1.78-9.17,3-15.37q5.64-34.62,8.18-41.16a13.74,13.74,0,0,1,4.79-6.34,12.42,12.42,0,0,1,6.89-2.5q5.59-.23,9.57,5.08t1.12,17.71q-2.19,8.47-5.57,29.31-2.52,14.37-4.54,23.25a87.36,87.36,0,0,1-3.57,12.59q-3.6,8-7.64,12.05t-12,7.46a31.29,31.29,0,0,1-11.08,2.67q-8.67.34-14.38-2.79a25.7,25.7,0,0,1-9.29-8.59,36.82,36.82,0,0,1-5.1-12.39,78.27,78.27,0,0,1-1.8-13.91,96.87,96.87,0,0,1,1.48-19.36q1.8-11,5.45-25.11a62.43,62.43,0,0,0,1.83-14.05,31.53,31.53,0,0,0-2.33-13.06c-2.42-4.75-5.12-7.95-8.07-9.61a16.61,16.61,0,0,0-8.9-2.31,16,16,0,0,0-9.11,3c-2.54,1.88-3.7,3.37-3.46,4.47a33.78,33.78,0,0,1,12.14,6.52,28.63,28.63,0,0,1,6.77,8.69,26.37,26.37,0,0,1,2.63,10,55,55,0,0,1-.29,10.37,27.5,27.5,0,0,1-10,17.31,30.86,30.86,0,0,1-18.74,7,28,28,0,0,1-8.42-.79,30,30,0,0,1-11.82-5.41,30.69,30.69,0,0,1-7.61-8.51,29.29,29.29,0,0,1-3.76-10.48A50.68,50.68,0,0,1,6891.55,7224.17Zm19,6q-.06,5.61,3.83,8.53a12.8,12.8,0,0,0,8.36,2.75,12.36,12.36,0,0,0,5.53-1.48,9.85,9.85,0,0,0,4-4.49,12.57,12.57,0,0,0,1.06-8.72,11.35,11.35,0,0,0-5-7.35,10.93,10.93,0,0,0-6.5-1.7,12,12,0,0,0-8.25,3.68A10.42,10.42,0,0,0,6910.53,7230.14Z" transform="translate(-6831.46 -7024.46)"/><path d="M7043,7210.35a33.29,33.29,0,0,1,7.48-10.3,39.07,39.07,0,0,1,10.32-6.92,36,36,0,0,1,12-3.16,38.08,38.08,0,0,1,12.58,1,37.58,37.58,0,0,1,17.62,10q7.51,7.46,9.73,19.17,1.43,7.72-1.25,18.45-1.05,4.2-2.8,9.9t-4.49,13.07q-1.09,2.63-2.51,7t-2.86,8.78c-1,3-1.93,5.77-2.89,8.43a50.07,50.07,0,0,1-2.7,6.37,10.72,10.72,0,0,1-5.28,5,7.78,7.78,0,0,1-6.07.17,8.78,8.78,0,0,1-5.54-6,12,12,0,0,1,.23-8.54q2.19-7.05,5.08-15.48t6.51-18.48c1.26-3.26,2.42-6.46,3.51-9.62a37.26,37.26,0,0,0,2-9.22,22.52,22.52,0,0,0-1.06-8.75,19.77,19.77,0,0,0-5.76-8.25,14.92,14.92,0,0,0-6.15-3.1,15.64,15.64,0,0,0-6.07-.28,29.62,29.62,0,0,0-6.33,1.66q-6.26,2.69-10,13.35-1.85,4.68-2.83,6.89t-5.05,3.21a11.77,11.77,0,0,1-4.46,0q-5.27-1.31-6.63-7.46a7.52,7.52,0,0,1-.16-3.38,36.41,36.41,0,0,1,.92-5q.65-2.62,1.46-5A17.5,17.5,0,0,1,7043,7210.35Z" transform="translate(-6831.46 -7024.46)"/><path d="M7125.12,7220.43a58.33,58.33,0,0,1,.5-8.67,26.09,26.09,0,0,1,2.27-7.87,17.67,17.67,0,0,1,4.84-6.11,18.82,18.82,0,0,1,8.35-3.58,19.77,19.77,0,0,1,12,1.31,18.56,18.56,0,0,1,9.34,8.74,22.63,22.63,0,0,1,1.95,8.63,24,24,0,0,1-.93,9q-4.17,9.9-14.22,12.3c-2.51.63-3.76,1.13-3.74,1.49q1.43,5.56,4.79,7.28a13.86,13.86,0,0,0,7.19,1.49,32.32,32.32,0,0,0,8.73-1.69q4.2-1.43,5.87-1a6.37,6.37,0,0,1,4.89,2.72,9,9,0,0,1,1.57,5.19,10,10,0,0,1-1.43,5.18,6.16,6.16,0,0,1-4.47,2.9q-9.72,2-13.67,4.52t-3.77,5.59a3.74,3.74,0,0,0,2.39,3.5,8.9,8.9,0,0,0,2.86.75,37.3,37.3,0,0,0,6.28,0c2.78-.16,5.54-.35,8.25-.57s5.22-.52,7.51-.89,4.29-.77,6-1.17a10.17,10.17,0,0,0,3.65-1.4q3.35-2,4.65-7.73a146.87,146.87,0,0,0,1.53-16q.57-10.5.58-26.16-.1-14.19,1.18-17.36a6.46,6.46,0,0,1,3.78-3.86,9,9,0,0,1,4.71-.46,9.82,9.82,0,0,1,4.47,1.84c1.27,1,1.86,2.83,1.79,5.63.05,1,.1,2.9.15,5.81s0,6.8-.05,11.66q-.19,15.67-.69,25.89a103.89,103.89,0,0,1-1.64,15.57q-1.5,8.84-5.49,13.7a25.7,25.7,0,0,1-9.86,7.4,47,47,0,0,1-13.09,3.4c-4.83.58-9.95,1.09-15.39,1.53a75,75,0,0,1-12.76-.26q-5.87-.66-11.6-5.43a17.64,17.64,0,0,1-4.51-5.56,20.66,20.66,0,0,1-2.13-6.89,22.92,22.92,0,0,1,.21-7.39,20,20,0,0,1,2.52-6.7l1.32-2.44a19.78,19.78,0,0,1-7.79-5.65,34.23,34.23,0,0,1-5.13-8.26,40.15,40.15,0,0,1-2.84-9.76A73.75,73.75,0,0,1,7125.12,7220.43Zm12.2-6.35a6.58,6.58,0,0,0,2.48,5.23,7.45,7.45,0,0,0,5.4,2,6.52,6.52,0,0,0,4.76-2.64,7.62,7.62,0,0,0,2-6.12,6.75,6.75,0,0,0-3.4-5.27,5.81,5.81,0,0,0-4.07-1.22,7.67,7.67,0,0,0-5.32,2.58A6.6,6.6,0,0,0,7137.32,7214.08Z" transform="translate(-6831.46 -7024.46)"/><path d="M7226.88,7219.52a43.16,43.16,0,0,1,4.76-15.49,51.1,51.1,0,0,1,9.86-13.22,46.71,46.71,0,0,1,13.54-9.1,32.83,32.83,0,0,1,16-2.71,32.09,32.09,0,0,1,19.39,8.35A32.93,32.93,0,0,1,7301,7206.3a44.2,44.2,0,0,1,.86,13.87,71.61,71.61,0,0,1-2.81,14.3q-1.09,3.69-2.71,10t-2.6,12.46a43.32,43.32,0,0,0-.54,10.72c.29,3,1.44,4.55,3.47,4.55a6.37,6.37,0,0,0,5.09-2.49,13,13,0,0,0,2.7-5.09c.44-1.3,1-3.5,1.74-6.61s1.66-7,2.81-11.81q5.42-26.66,7.59-31.63a10.62,10.62,0,0,1,3.9-4.77,9.66,9.66,0,0,1,5.42-1.73q4.32,0,7.25,4.22t.33,13.76q-1.95,6.49-5.2,22.54-2.39,11-4.23,17.87a67.63,67.63,0,0,1-3.14,9.64,31.8,31.8,0,0,1-6.28,9.1,29,29,0,0,1-9.54,5.42,24.21,24.21,0,0,1-8.66,1.73,21.14,21.14,0,0,1-11.05-2.6,19.94,19.94,0,0,1-6.94-6.93,28.7,28.7,0,0,1-3.57-9.75,61,61,0,0,1-1-10.83,75.09,75.09,0,0,1,1.74-14.95q1.72-8.46,5-19.29a48.19,48.19,0,0,0,1.84-10.83A24.31,24.31,0,0,0,7281,7207q-2.59-5.62-5.95-7.69a13,13,0,0,0-6.83-2.06,12.45,12.45,0,0,0-7.15,2.06c-2,1.38-3,2.49-2.82,3.36a26.16,26.16,0,0,1,9.21,5.42,22.22,22.22,0,0,1,5,6.93,20.71,20.71,0,0,1,1.73,7.8,42.41,42.41,0,0,1-.54,8,21.3,21.3,0,0,1-8.24,13.11,23.9,23.9,0,0,1-14.73,4.87,22,22,0,0,1-6.5-.87,23.3,23.3,0,0,1-9-4.54,23.83,23.83,0,0,1-5.63-6.83,22.54,22.54,0,0,1-2.6-8.23A39.12,39.12,0,0,1,7226.88,7219.52Zm14.51,5.2a7.66,7.66,0,0,0,2.71,6.72,9.89,9.89,0,0,0,6.39,2.38,9.58,9.58,0,0,0,4.34-1,7.72,7.72,0,0,0,3.25-3.36,9.78,9.78,0,0,0,1.08-6.72,8.83,8.83,0,0,0-3.68-5.85,8.51,8.51,0,0,0-5-1.52,9.33,9.33,0,0,0-6.5,2.6A8.13,8.13,0,0,0,7241.39,7224.72Z" transform="translate(-6831.46 -7024.46)"/><path d="M7339.06,7271.45a39.42,39.42,0,0,1,.48-5.44q.48-3.3,1.17-6.8t1.26-6.71c.39-2.13.65-3.79.78-4.95a90.93,90.93,0,0,1,2.33-10,22.19,22.19,0,0,1,4-7.78,17.48,17.48,0,0,1,6.6-4.95,24.94,24.94,0,0,1,10-1.75q10.31,0,15.94,7.38t3.5,19.63q-2.15,7.79-7.77,11.28a22.5,22.5,0,0,1-12.05,3.5,26.84,26.84,0,0,1-7.78-1.17c-.13.65-.32,1.52-.58,2.62a19.85,19.85,0,0,0-.49,3.21,8,8,0,0,0,.29,2.82,2.36,2.36,0,0,0,1.56,1.65q1.17.59,17.68.58,17.31,0,22.55-1.55a9,9,0,0,0,6.8-6.22,74.26,74.26,0,0,0,1.85-8.46q.87-5.15,1.46-10.69t.87-10.69a52.26,52.26,0,0,0-.1-8.64c-.51-5.06-1.91-8.94-4.17-11.67a20.24,20.24,0,0,0-8.56-6,41.16,41.16,0,0,0-11.37-2.43q-6.21-.48-12.82-.68a12.18,12.18,0,0,1-7.68-2.14,8,8,0,0,1-3.6-6.61,8.13,8.13,0,0,1,5.25-8,7.52,7.52,0,0,1,3.31-.87c1.29-.06,2.45-.1,3.49-.1,1.43,0,3.21.1,5.35.29s3.92.3,5.34.3a73.14,73.14,0,0,1,14.39,2.13,40.2,40.2,0,0,1,12.34,5.45,36.33,36.33,0,0,1,9.52,9.32,37,37,0,0,1,5.73,13.8,90.16,90.16,0,0,1,1.07,13.22,115.22,115.22,0,0,1-.68,14.29q-.78,7.1-2,13.5a100.68,100.68,0,0,1-2.82,11.28,25.2,25.2,0,0,1-4.66,8.84,21.65,21.65,0,0,1-6.8,5.35,35.14,35.14,0,0,1-8.75,2.91q-4.86,1-10.88,1.75-2.73.39-6.61.58c-2.59.13-5.32.2-8.16.2q-7,0-13.61-.59a43.1,43.1,0,0,1-9.91-1.74,16.77,16.77,0,0,1-5.15-3,22.05,22.05,0,0,1-4.18-4.66,22.59,22.59,0,0,1-2.72-5.64A19.16,19.16,0,0,1,7339.06,7271.45Zm18.27-27a7.28,7.28,0,0,0,1.84,5.44,8.11,8.11,0,0,0,5.35,2.72,6.18,6.18,0,0,0,6.31-1.75,7.56,7.56,0,0,0,2.63-6q.2-4.47-2.33-6.51a8.73,8.73,0,0,0-5.64-2,9.16,9.16,0,0,0-5.93,2.14A6.44,6.44,0,0,0,7357.33,7244.44Z" transform="translate(-6831.46 -7024.46)"/><path d="M7436.87,7214.12a14.49,14.49,0,0,1,2.06-7.7q2.06-3.35,7-3.35a9.1,9.1,0,0,1,8.24,4.55,54.49,54.49,0,0,1,1.41,5.63,80.85,80.85,0,0,1,1.19,8q1.51,9.75,2.71,19t2.27,19q1.3,11.28,3,13.44a9.65,9.65,0,0,0,7.36,3.68q5.42,0,8.45-6.07a24.65,24.65,0,0,0,1.95-7q.87-5.08,1.52-11t1-11.59q.33-5.62.33-8.45c-2.6-.58-5.28-1.19-8-1.84s-5.49-2.42-8.23-5.31a20.46,20.46,0,0,1-5.74-10.94,25,25,0,0,1,.76-11.59,19.53,19.53,0,0,1,7.9-11.7,22.57,22.57,0,0,1,13.11-4.12,24.3,24.3,0,0,1,11.16,2.82,23.43,23.43,0,0,1,9.21,8.66,23,23,0,0,1,1.84,7.26,43.67,43.67,0,0,1-.11,8.13q-.21,5.63-1,14.3t-1.74,17.55q-1,8.88-2.16,16.9a71.7,71.7,0,0,1-2.71,12.35,29.85,29.85,0,0,1-12.13,16.79,28.32,28.32,0,0,1-19.72,4.66,23.88,23.88,0,0,1-5.42-1.63,31.23,31.23,0,0,1-5.52-3,45.47,45.47,0,0,1-5.1-4,19.65,19.65,0,0,1-3.68-4.33,39,39,0,0,1-4.12-10.94,114.61,114.61,0,0,1-2-12.25q-1.08-11-3.14-23.18A135.54,135.54,0,0,1,7436.87,7214.12Zm41.82,1.73a7.89,7.89,0,0,0,10.19,1.3,8.6,8.6,0,0,0,3-3.68,9,9,0,0,0,1-4.55,8.89,8.89,0,0,0-1.3-4.34,9.68,9.68,0,0,0-3-3.14,8,8,0,0,0-4.44-1.19,7,7,0,0,0-4.77,1.73,9.17,9.17,0,0,0-2.71,4.23,11.08,11.08,0,0,0-.32,5.09A8.24,8.24,0,0,0,7478.69,7215.85Z" transform="translate(-6831.46 -7024.46)"/></g></svg>