<svg id="Layer_3" data-name="Layer 3" xmlns="http://www.w3.org/2000/svg" viewBox="0 0 715.49 88.37"><defs><style>.cls-1{fill:#fff;}.cls-2{fill:#f60;}</style></defs><title>logo2_text</title><path class="cls-1" d="M6862.12,7218.8v16.78A9.54,9.54,0,0,1,6852,7245.7a10.09,10.09,0,0,1-7.47-2.77,10,10,0,0,1-2.77-7.35v-67.76a9.84,9.84,0,0,1,2.71-7.28,10,10,0,0,1,7.41-2.72,10.26,10.26,0,0,1,7.4,2.72,9.62,9.62,0,0,1,2.84,7.28v26.78l32.09-33.32a9.53,9.53,0,0,1,7-3.46,7.92,7.92,0,0,1,3.51.81,10.11,10.11,0,0,1,3,2.16,11.25,11.25,0,0,1,2.09,3.08,8.13,8.13,0,0,1,.81,3.46,8.39,8.39,0,0,1-.56,3,7.09,7.09,0,0,1-1.91,2.72l-22.71,22.71,24.56,34.8a10.75,10.75,0,0,1,2.1,6,7.88,7.88,0,0,1-.87,3.58,10.24,10.24,0,0,1-2.28,3,10.81,10.81,0,0,1-3.21,2,9.51,9.51,0,0,1-3.64.74q-4.32,0-7.28-4.07l-23.21-32.71Z" transform="translate(-6841.76 -7157.58)"/><path class="cls-1" d="M6942.22,7210.53v25.05a9.53,9.53,0,0,1-10.12,10.12,10.11,10.11,0,0,1-7.47-2.77,10,10,0,0,1-2.77-7.35v-67.76a9.84,9.84,0,0,1,2.71-7.28,10,10,0,0,1,7.41-2.72,10.26,10.26,0,0,1,7.4,2.72,9.58,9.58,0,0,1,2.84,7.28v25.06h36.29v-25.06a9.35,9.35,0,0,1,10-10,10.22,10.22,0,0,1,7.46,2.72,9.69,9.69,0,0,1,2.78,7.28v67.76a10.11,10.11,0,0,1-2.71,7.35,9.75,9.75,0,0,1-7.29,2.77,10.08,10.08,0,0,1-7.46-2.77,9.91,9.91,0,0,1-2.78-7.35v-25.05Z" transform="translate(-6841.76 -7157.58)"/><path class="cls-1" d="M7031.33,7226.94l-3.7,11.23a10.51,10.51,0,0,1-3.64,5.43,9.75,9.75,0,0,1-6.23,2.1q-4.93,0-7.59-2.34a8,8,0,0,1-2.66-6.3,14.84,14.84,0,0,1,.74-4.44l21.48-62.58a18.63,18.63,0,0,1,6-8.88q4.13-3.34,10.92-3.34a17.15,17.15,0,0,1,10.92,3.34,18.28,18.28,0,0,1,6.11,8.88l21.48,62.58c.24.82.45,1.6.62,2.34a10.64,10.64,0,0,1,.24,2.23,7.7,7.7,0,0,1-2.71,6.23q-2.72,2.28-7.53,2.28a9.92,9.92,0,0,1-9.88-7.53l-3.7-11.23Zm3.95-14.56H7058l-11.35-36.17Z" transform="translate(-6841.76 -7157.58)"/><path class="cls-1" d="M7105.88,7245.7a9.54,9.54,0,0,1-10.12-10.12v-67.76a9.37,9.37,0,0,1,10-10,10.22,10.22,0,0,1,7.47,2.72,9.72,9.72,0,0,1,2.77,7.28v67.76a10.07,10.07,0,0,1-2.71,7.35A9.89,9.89,0,0,1,7105.88,7245.7Z" transform="translate(-6841.76 -7157.58)"/><path class="cls-2" d="M7149.08,7218.8v16.78A9.54,9.54,0,0,1,7139,7245.7a10.09,10.09,0,0,1-7.47-2.77,10,10,0,0,1-2.78-7.35v-67.76a9.85,9.85,0,0,1,2.72-7.28,10,10,0,0,1,7.41-2.72,10.26,10.26,0,0,1,7.4,2.72,9.62,9.62,0,0,1,2.84,7.28v26.78l32.09-33.32a9.51,9.51,0,0,1,7-3.46,7.92,7.92,0,0,1,3.51.81,10.11,10.11,0,0,1,3,2.16,11.25,11.25,0,0,1,2.09,3.08,8.13,8.13,0,0,1,.81,3.46,8.39,8.39,0,0,1-.56,3,7.09,7.09,0,0,1-1.91,2.72l-22.71,22.71,24.56,34.8a10.75,10.75,0,0,1,2.1,6,7.88,7.88,0,0,1-.87,3.58,10.24,10.24,0,0,1-2.28,3,10.81,10.81,0,0,1-3.21,2,9.51,9.51,0,0,1-3.64.74q-4.32,0-7.28-4.07l-23.21-32.71Z" transform="translate(-6841.76 -7157.58)"/><path class="cls-2" d="M7229.18,7210.53v25.05a9.53,9.53,0,0,1-10.12,10.12,10.11,10.11,0,0,1-7.47-2.77,10,10,0,0,1-2.77-7.35v-67.76a9.84,9.84,0,0,1,2.71-7.28,10,10,0,0,1,7.41-2.72,10.26,10.26,0,0,1,7.4,2.72,9.58,9.58,0,0,1,2.84,7.28v25.06h36.29v-25.06a9.35,9.35,0,0,1,10-10,10.22,10.22,0,0,1,7.46,2.72,9.69,9.69,0,0,1,2.78,7.28v67.76a10.11,10.11,0,0,1-2.71,7.35,9.75,9.75,0,0,1-7.29,2.77,10.08,10.08,0,0,1-7.46-2.77,9.91,9.91,0,0,1-2.78-7.35v-25.05Z" transform="translate(-6841.76 -7157.58)"/><path class="cls-2" d="M7337.67,7246a50.21,50.21,0,0,1-17.59-3,37.44,37.44,0,0,1-13.57-8.58,38,38,0,0,1-8.7-13.89,53.67,53.67,0,0,1-3.09-18.88,52.83,52.83,0,0,1,3.09-18.7,38.08,38.08,0,0,1,8.7-13.82,37.17,37.17,0,0,1,13.57-8.58,53.57,53.57,0,0,1,35.12,0,37.27,37.27,0,0,1,13.51,8.58,38.23,38.23,0,0,1,8.71,13.82,53.06,53.06,0,0,1,3.08,18.7,53.9,53.9,0,0,1-3.08,18.88,38.1,38.1,0,0,1-8.71,13.89,37.53,37.53,0,0,1-13.51,8.58A49.71,49.71,0,0,1,7337.67,7246Zm0-18.27a19.43,19.43,0,0,0,8.39-1.79,19,19,0,0,0,6.61-5.12,24.06,24.06,0,0,0,4.32-8.15,39.91,39.91,0,0,0,0-22,24.06,24.06,0,0,0-4.32-8.15,18.35,18.35,0,0,0-6.61-5.06,20.15,20.15,0,0,0-8.39-1.73,18.81,18.81,0,0,0-15.06,6.85q-5.79,6.86-5.8,19.07a35.81,35.81,0,0,0,1.55,11,24.49,24.49,0,0,0,4.25,8.15,18.28,18.28,0,0,0,6.61,5.12A19.86,19.86,0,0,0,7337.67,7227.68Z" transform="translate(-6841.76 -7157.58)"/><path class="cls-2" d="M7409.51,7191.64v44.19a9.57,9.57,0,0,1-2.78,7.16,11,11,0,0,1-14.44,0,9.57,9.57,0,0,1-2.78-7.16v-66.4a11.36,11.36,0,0,1,3.21-8.4,11.52,11.52,0,0,1,8.52-3.21,11.86,11.86,0,0,1,5.55,1.36,13.12,13.12,0,0,1,4.32,3.58l35.18,48.88V7167.7a9.33,9.33,0,0,1,9.87-9.88,9.89,9.89,0,0,1,7.22,2.72,9.57,9.57,0,0,1,2.78,7.16V7234a11.49,11.49,0,0,1-3.21,8.51,11.35,11.35,0,0,1-8.39,3.21,11.47,11.47,0,0,1-5.5-1.42,12.25,12.25,0,0,1-4.26-3.64Z" transform="translate(-6841.76 -7157.58)"/><path class="cls-2" d="M7517.75,7246a48.14,48.14,0,0,1-17.34-3,35.63,35.63,0,0,1-13.15-8.64,38.13,38.13,0,0,1-8.33-14,57,57,0,0,1-2.9-18.88,55.48,55.48,0,0,1,2.9-18.64,37.57,37.57,0,0,1,8.33-13.76,35.75,35.75,0,0,1,13.15-8.58,47.93,47.93,0,0,1,17.34-3q26.91,0,37.64,18.88a8.66,8.66,0,0,1,1.24,4.44,7.71,7.71,0,0,1-.93,3.71,10.07,10.07,0,0,1-2.47,3,12.23,12.23,0,0,1-3.45,2,10.48,10.48,0,0,1-3.77.74,8.6,8.6,0,0,1-4.93-1.61,34.26,34.26,0,0,1-4.94-4.19,29.5,29.5,0,0,0-7.72-6.42,20.4,20.4,0,0,0-10.67-2.84q-9.63,0-15.12,6.48t-5.49,19.69q0,13.45,5.49,20t15.12,6.61a26.1,26.1,0,0,0,7.34-1,18.13,18.13,0,0,0,5.93-2.9,13.79,13.79,0,0,0,4-4.88,14.91,14.91,0,0,0,1.48-6.79v-.86h-12a7,7,0,0,1-7.53-7.53,7.6,7.6,0,0,1,2-5.61,7.43,7.43,0,0,1,5.5-2H7545q6.17,0,9.19,3.7a14.53,14.53,0,0,1,3,9.51v.86a40.94,40.94,0,0,1-2,12.34,30.57,30.57,0,0,1-6.6,11.42,34.1,34.1,0,0,1-12.22,8.33Q7528.86,7246,7517.75,7246Z" transform="translate(-6841.76 -7157.58)"/></svg>